# Blender 4.5.3 LTS
# www.blender.org
mtllib house_CRWindows_supports.mtl
g Cube.097_Mesh
v -21.581320 5.250000 -33.840000
v -21.581320 6.750000 -33.840000
v -21.581320 5.250000 -33.960003
v -21.566319 5.670000 -33.889999
v -21.581320 6.750000 -33.960003
v -21.566319 5.830000 -33.889999
v -21.501318 5.250000 -33.840000
v -21.501318 6.750000 -33.840000
v -21.501318 5.250000 -33.960003
v -21.516319 5.670000 -33.889999
v -21.501318 6.750000 -33.960003
v -21.516319 5.830000 -33.889999
v -21.516319 5.830000 -33.840000
v -21.516319 5.670000 -33.840000
v -21.566319 5.670000 -33.840000
v -21.566319 5.830000 -33.840000
vn -1.0000 -0.0000 -0.0000
vn -0.0000 -0.0000 -1.0000
vn 1.0000 -0.0000 -0.0000
vn -0.0000 -0.0000 1.0000
vn -0.0000 -1.0000 -0.0000
vn -0.0000 1.0000 -0.0000
vt 0.625000 0.000000
vt 0.375000 0.250000
vt 0.375000 0.000000
vt 0.625000 0.250000
vt 0.375000 0.500000
vt 0.625000 0.500000
vt 0.375000 0.750000
vt 0.625000 0.750000
vt 0.625000 1.000000
vt 0.471667 0.796875
vt 0.375000 1.000000
vt 0.445000 0.796875
vt 0.445000 0.953125
vt 0.125000 0.750000
vt 0.125000 0.500000
vt 0.875000 0.500000
vt 0.375000 0.125009
vt 0.625000 0.624991
vt 0.125000 0.624991
vt 0.375000 0.624991
vt 0.875000 0.624991
vt 0.471667 0.953125
vt 0.875000 0.750000
vt 0.625000 0.125009
s 0
f 2/1/1 3/2/1 1/3/1
f 5/4/2 9/5/2 3/2/2
f 11/6/3 7/7/3 9/5/3
f 8/8/4 2/9/4 13/10/4
f 1/11/4 14/12/4 15/13/4
f 9/5/5 1/14/5 3/15/5
f 5/16/6 8/8/6 11/6/6
f 6/4/3 15/17/3 4/2/3
f 10/5/4 6/4/4 4/2/4
f 10/5/1 13/18/1 12/6/1
f 10/5/6 15/19/6 14/20/6
f 6/16/5 13/18/5 16/21/5
f 2/1/1 5/4/1 3/2/1
f 5/4/2 11/6/2 9/5/2
f 11/6/3 8/8/3 7/7/3
f 14/12/4 7/7/4 8/8/4
f 2/9/4 1/11/4 15/13/4
f 2/9/4 15/13/4 16/22/4
f 13/10/4 14/12/4 8/8/4
f 2/9/4 16/22/4 13/10/4
f 1/11/4 7/7/4 14/12/4
f 9/5/5 7/7/5 1/14/5
f 5/16/6 2/23/6 8/8/6
f 6/4/3 16/24/3 15/17/3
f 10/5/4 12/6/4 6/4/4
f 10/5/1 14/20/1 13/18/1
f 10/5/6 4/15/6 15/19/6
f 6/16/5 12/6/5 13/18/5
g Cube.102_Mesh
v -23.041319 5.250000 -33.840000
v -23.041319 6.750000 -33.840000
v -23.041319 5.250000 -33.960003
v -23.026318 5.670000 -33.889999
v -23.041319 6.750000 -33.960003
v -23.026318 5.830000 -33.889999
v -22.961317 5.250000 -33.840000
v -22.961317 6.750000 -33.840000
v -22.961317 5.250000 -33.960003
v -22.976318 5.670000 -33.889999
v -22.961317 6.750000 -33.960003
v -22.976318 5.830000 -33.889999
v -22.976318 5.830000 -33.840000
v -22.976318 5.670000 -33.840000
v -23.026318 5.670000 -33.840000
v -23.026318 5.830000 -33.840000
vn -1.0000 -0.0000 -0.0000
vn -0.0000 -0.0000 -1.0000
vn 1.0000 -0.0000 -0.0000
vn -0.0000 -0.0000 1.0000
vn -0.0000 -1.0000 -0.0000
vn -0.0000 1.0000 -0.0000
vt 0.625000 0.000000
vt 0.375000 0.250000
vt 0.375000 0.000000
vt 0.625000 0.250000
vt 0.375000 0.500000
vt 0.625000 0.500000
vt 0.375000 0.750000
vt 0.625000 0.750000
vt 0.625000 1.000000
vt 0.471667 0.796875
vt 0.375000 1.000000
vt 0.445000 0.796875
vt 0.445000 0.953125
vt 0.125000 0.750000
vt 0.125000 0.500000
vt 0.875000 0.500000
vt 0.375000 0.125009
vt 0.625000 0.624991
vt 0.125000 0.624991
vt 0.375000 0.624991
vt 0.875000 0.624991
vt 0.471667 0.953125
vt 0.875000 0.750000
vt 0.625000 0.125009
s 0
f 18/25/7 19/26/7 17/27/7
f 21/28/8 25/29/8 19/26/8
f 27/30/9 23/31/9 25/29/9
f 24/32/10 18/33/10 29/34/10
f 17/35/10 30/36/10 31/37/10
f 25/29/11 17/38/11 19/39/11
f 21/40/12 24/32/12 27/30/12
f 22/28/9 31/41/9 20/26/9
f 26/29/10 22/28/10 20/26/10
f 26/29/7 29/42/7 28/30/7
f 26/29/12 31/43/12 30/44/12
f 22/40/11 29/42/11 32/45/11
f 18/25/7 21/28/7 19/26/7
f 21/28/8 27/30/8 25/29/8
f 27/30/9 24/32/9 23/31/9
f 30/36/10 23/31/10 24/32/10
f 18/33/10 17/35/10 31/37/10
f 18/33/10 31/37/10 32/46/10
f 29/34/10 30/36/10 24/32/10
f 18/33/10 32/46/10 29/34/10
f 17/35/10 23/31/10 30/36/10
f 25/29/11 23/31/11 17/38/11
f 21/40/12 18/47/12 24/32/12
f 22/28/9 32/48/9 31/41/9
f 26/29/10 28/30/10 22/28/10
f 26/29/7 30/44/7 29/42/7
f 26/29/12 20/39/12 31/43/12
f 22/40/11 28/30/11 29/42/11
g Cube.129_Mesh
v -24.501318 5.250000 -33.840000
v -24.501318 6.750000 -33.840000
v -24.501318 5.250000 -33.960003
v -24.501318 6.750000 -33.960003
v -24.421316 5.250000 -33.840000
v -24.421316 6.750000 -33.840000
v -24.421316 5.250000 -33.960003
v -24.421316 6.750000 -33.960003
vn -1.0000 -0.0000 -0.0000
vn -0.0000 -0.0000 -1.0000
vn 1.0000 -0.0000 -0.0000
vn -0.0000 -0.0000 1.0000
vn -0.0000 -1.0000 -0.0000
vn -0.0000 1.0000 -0.0000
vt 0.625000 0.000000
vt 0.375000 0.250000
vt 0.375000 0.000000
vt 0.625000 0.250000
vt 0.375000 0.500000
vt 0.625000 0.500000
vt 0.375000 0.750000
vt 0.625000 0.750000
vt 0.375000 1.000000
vt 0.125000 0.750000
vt 0.125000 0.500000
vt 0.875000 0.500000
vt 0.625000 1.000000
vt 0.875000 0.750000
s 0
f 34/49/13 35/50/13 33/51/13
f 36/52/14 39/53/14 35/50/14
f 40/54/15 37/55/15 39/53/15
f 38/56/16 33/57/16 37/55/16
f 39/53/17 33/58/17 35/59/17
f 36/60/18 38/56/18 40/54/18
f 34/49/13 36/52/13 35/50/13
f 36/52/14 40/54/14 39/53/14
f 40/54/15 38/56/15 37/55/15
f 38/56/16 34/61/16 33/57/16
f 39/53/17 37/55/17 33/58/17
f 36/60/18 34/62/18 38/56/18
g Cube.076_Mesh
v -21.566319 5.831800 -33.805695
v -21.566319 6.231800 -33.805695
v -21.566319 5.831800 -33.825691
v -21.566319 6.231800 -33.825691
v -21.556320 5.831800 -33.805695
v -21.556320 6.231800 -33.805695
v -21.556320 5.831800 -33.825691
v -21.556320 6.231800 -33.825691
v -21.566322 5.745204 -33.855721
v -21.566322 5.831807 -33.805717
v -21.566322 5.755204 -33.873039
v -21.566322 5.841806 -33.823040
v -21.556322 5.745204 -33.855721
v -21.556322 5.831807 -33.805717
v -21.556322 5.755204 -33.873039
v -21.556322 5.841806 -33.823040
vn -1.0000 -0.0000 -0.0000
vn -0.0000 -0.0000 -1.0000
vn 1.0000 -0.0000 -0.0000
vn -0.0000 -0.0000 1.0000
vn -0.0000 -1.0000 -0.0000
vn -0.0000 1.0000 -0.0000
vn -0.0000 0.5000 -0.8660
vn -0.0000 -0.5000 0.8660
vn -0.0000 -0.8660 -0.5000
vn -0.0000 0.8660 0.5000
vt 0.625000 0.000000
vt 0.375000 0.250000
vt 0.375000 0.000000
vt 0.625000 0.250000
vt 0.375000 0.500000
vt 0.625000 0.500000
vt 0.375000 0.750000
vt 0.625000 0.750000
vt 0.375000 1.000000
vt 0.125000 0.750000
vt 0.125000 0.500000
vt 0.875000 0.500000
vt 0.625000 1.000000
vt 0.875000 0.750000
s 0
f 42/63/19 43/64/19 41/65/19
f 44/66/20 47/67/20 43/64/20
f 48/68/21 45/69/21 47/67/21
f 46/70/22 41/71/22 45/69/22
f 47/67/23 41/72/23 43/73/23
f 44/74/24 46/70/24 48/68/24
f 49/65/19 52/66/19 51/64/19
f 52/66/25 55/67/25 51/64/25
f 56/68/21 53/69/21 55/67/21
f 54/70/26 49/71/26 53/69/26
f 55/67/27 49/72/27 51/73/27
f 52/74/28 54/70/28 56/68/28
f 42/63/19 44/66/19 43/64/19
f 44/66/20 48/68/20 47/67/20
f 48/68/21 46/70/21 45/69/21
f 46/70/22 42/75/22 41/71/22
f 47/67/23 45/69/23 41/72/23
f 44/74/24 42/76/24 46/70/24
f 49/65/19 50/63/19 52/66/19
f 52/66/25 56/68/25 55/67/25
f 56/68/21 54/70/21 53/69/21
f 54/70/26 50/75/26 49/71/26
f 55/67/27 53/69/27 49/72/27
f 52/74/28 50/76/28 54/70/28
g Cube.130_Mesh
v -23.026318 5.831800 -33.805695
v -23.026318 6.231800 -33.805695
v -23.026318 5.831800 -33.825691
v -23.026318 6.231800 -33.825691
v -23.016319 5.831800 -33.805695
v -23.016319 6.231800 -33.805695
v -23.016319 5.831800 -33.825691
v -23.016319 6.231800 -33.825691
v -23.026321 5.745204 -33.855721
v -23.026321 5.831807 -33.805717
v -23.026321 5.755204 -33.873039
v -23.026321 5.841806 -33.823040
v -23.016321 5.745204 -33.855721
v -23.016321 5.831807 -33.805717
v -23.016321 5.755204 -33.873039
v -23.016321 5.841806 -33.823040
vn -1.0000 -0.0000 -0.0000
vn -0.0000 -0.0000 -1.0000
vn 1.0000 -0.0000 -0.0000
vn -0.0000 -0.0000 1.0000
vn -0.0000 -1.0000 -0.0000
vn -0.0000 1.0000 -0.0000
vn -0.0000 0.5000 -0.8660
vn -0.0000 -0.5000 0.8660
vn -0.0000 -0.8660 -0.5000
vn -0.0000 0.8660 0.5000
vt 0.625000 0.000000
vt 0.375000 0.250000
vt 0.375000 0.000000
vt 0.625000 0.250000
vt 0.375000 0.500000
vt 0.625000 0.500000
vt 0.375000 0.750000
vt 0.625000 0.750000
vt 0.375000 1.000000
vt 0.125000 0.750000
vt 0.125000 0.500000
vt 0.875000 0.500000
vt 0.625000 1.000000
vt 0.875000 0.750000
s 0
f 58/77/29 59/78/29 57/79/29
f 60/80/30 63/81/30 59/78/30
f 64/82/31 61/83/31 63/81/31
f 62/84/32 57/85/32 61/83/32
f 63/81/33 57/86/33 59/87/33
f 60/88/34 62/84/34 64/82/34
f 65/79/29 68/80/29 67/78/29
f 68/80/35 71/81/35 67/78/35
f 72/82/31 69/83/31 71/81/31
f 70/84/36 65/85/36 69/83/36
f 71/81/37 65/86/37 67/87/37
f 68/88/38 70/84/38 72/82/38
f 58/77/29 60/80/29 59/78/29
f 60/80/30 64/82/30 63/81/30
f 64/82/31 62/84/31 61/83/31
f 62/84/32 58/89/32 57/85/32
f 63/81/33 61/83/33 57/86/33
f 60/88/34 58/90/34 62/84/34
f 65/79/29 66/77/29 68/80/29
f 68/80/35 72/82/35 71/81/35
f 72/82/31 70/84/31 69/83/31
f 70/84/36 66/89/36 65/85/36
f 71/81/37 69/83/37 65/86/37
f 68/88/38 66/90/38 70/84/38
g Cube.056_Mesh
v -35.960003 11.250000 -21.000000
v -35.960003 12.750000 -21.000000
v -35.960003 11.250000 -21.080002
v -35.960003 12.750000 -21.080002
v -35.840000 11.250000 -21.000000
v -35.840000 12.750000 -21.000000
v -35.840000 11.250000 -21.080002
v -35.840000 12.750000 -21.080002
vn -1.0000 -0.0000 -0.0000
vn -0.0000 -0.0000 -1.0000
vn 1.0000 -0.0000 -0.0000
vn -0.0000 -0.0000 1.0000
vn -0.0000 -1.0000 -0.0000
vn -0.0000 1.0000 -0.0000
vt 0.625000 0.000000
vt 0.375000 0.250000
vt 0.375000 0.000000
vt 0.625000 0.250000
vt 0.375000 0.500000
vt 0.625000 0.500000
vt 0.375000 0.750000
vt 0.625000 0.750000
vt 0.375000 1.000000
vt 0.125000 0.750000
vt 0.125000 0.500000
vt 0.875000 0.500000
vt 0.625000 1.000000
vt 0.875000 0.750000
s 0
f 74/91/39 75/92/39 73/93/39
f 76/94/40 79/95/40 75/92/40
f 80/96/41 77/97/41 79/95/41
f 78/98/42 73/99/42 77/97/42
f 79/95/43 73/100/43 75/101/43
f 76/102/44 78/98/44 80/96/44
f 74/91/39 76/94/39 75/92/39
f 76/94/40 80/96/40 79/95/40
f 80/96/41 78/98/41 77/97/41
f 78/98/42 74/103/42 73/99/42
f 79/95/43 77/97/43 73/100/43
f 76/102/44 74/104/44 78/98/44
g Cube.099_Mesh
v -35.840000 11.250000 -23.919998
v -35.840000 12.750000 -23.919998
v -35.960003 11.250000 -23.919998
v -35.889999 11.670000 -23.934999
v -35.960003 12.750000 -23.919998
v -35.889999 11.830000 -23.934999
v -35.840000 11.250000 -24.000000
v -35.840000 12.750000 -24.000000
v -35.960003 11.250000 -24.000000
v -35.889999 11.670000 -23.984999
v -35.960003 12.750000 -24.000000
v -35.889999 11.830000 -23.984999
v -35.840000 11.830000 -23.984999
v -35.840000 11.670000 -23.984999
v -35.840000 11.670000 -23.934999
v -35.840000 11.830000 -23.934999
vn -0.0000 -0.0000 1.0000
vn -1.0000 -0.0000 -0.0000
vn -0.0000 -0.0000 -1.0000
vn 1.0000 -0.0000 -0.0000
vn -0.0000 -1.0000 -0.0000
vn -0.0000 1.0000 -0.0000
vt 0.625000 0.000000
vt 0.375000 0.250000
vt 0.375000 0.000000
vt 0.625000 0.250000
vt 0.375000 0.500000
vt 0.625000 0.500000
vt 0.375000 0.750000
vt 0.625000 0.750000
vt 0.625000 1.000000
vt 0.471667 0.796875
vt 0.375000 1.000000
vt 0.445000 0.796875
vt 0.445000 0.953125
vt 0.125000 0.750000
vt 0.125000 0.500000
vt 0.875000 0.500000
vt 0.375000 0.125009
vt 0.625000 0.624991
vt 0.125000 0.624991
vt 0.375000 0.624991
vt 0.875000 0.624991
vt 0.471667 0.953125
vt 0.875000 0.750000
vt 0.625000 0.125009
s 0
f 82/105/45 83/106/45 81/107/45
f 85/108/46 89/109/46 83/106/46
f 91/110/47 87/111/47 89/109/47
f 88/112/48 82/113/48 93/114/48
f 81/115/48 94/116/48 95/117/48
f 89/109/49 81/118/49 83/119/49
f 85/120/50 88/112/50 91/110/50
f 86/108/47 95/121/47 84/106/47
f 90/109/48 86/108/48 84/106/48
f 90/109/45 93/122/45 92/110/45
f 90/109/50 95/123/50 94/124/50
f 86/120/49 93/122/49 96/125/49
f 82/105/45 85/108/45 83/106/45
f 85/108/46 91/110/46 89/109/46
f 91/110/47 88/112/47 87/111/47
f 94/116/48 87/111/48 88/112/48
f 82/113/48 81/115/48 95/117/48
f 82/113/48 95/117/48 96/126/48
f 93/114/48 94/116/48 88/112/48
f 82/113/48 96/126/48 93/114/48
f 81/115/48 87/111/48 94/116/48
f 89/109/49 87/111/49 81/118/49
f 85/120/50 82/127/50 88/112/50
f 86/108/47 96/128/47 95/121/47
f 90/109/48 92/110/48 86/108/48
f 90/109/45 94/124/45 93/122/45
f 90/109/50 84/119/50 95/123/50
f 86/120/49 92/110/49 93/122/49
g Cube.131_Mesh
v -35.840000 11.250000 -22.419998
v -35.840000 12.750000 -22.419998
v -35.960003 11.250000 -22.419998
v -35.889999 11.670000 -22.434999
v -35.960003 12.750000 -22.419998
v -35.889999 11.830000 -22.434999
v -35.840000 11.250000 -22.500000
v -35.840000 12.750000 -22.500000
v -35.960003 11.250000 -22.500000
v -35.889999 11.670000 -22.484999
v -35.960003 12.750000 -22.500000
v -35.889999 11.830000 -22.484999
v -35.840000 11.830000 -22.484999
v -35.840000 11.670000 -22.484999
v -35.840000 11.670000 -22.434999
v -35.840000 11.830000 -22.434999
vn -0.0000 -0.0000 1.0000
vn -1.0000 -0.0000 -0.0000
vn -0.0000 -0.0000 -1.0000
vn 1.0000 -0.0000 -0.0000
vn -0.0000 -1.0000 -0.0000
vn -0.0000 1.0000 -0.0000
vt 0.625000 0.000000
vt 0.375000 0.250000
vt 0.375000 0.000000
vt 0.625000 0.250000
vt 0.375000 0.500000
vt 0.625000 0.500000
vt 0.375000 0.750000
vt 0.625000 0.750000
vt 0.625000 1.000000
vt 0.471667 0.796875
vt 0.375000 1.000000
vt 0.445000 0.796875
vt 0.445000 0.953125
vt 0.125000 0.750000
vt 0.125000 0.500000
vt 0.875000 0.500000
vt 0.375000 0.125009
vt 0.625000 0.624991
vt 0.125000 0.624991
vt 0.375000 0.624991
vt 0.875000 0.624991
vt 0.471667 0.953125
vt 0.875000 0.750000
vt 0.625000 0.125009
s 0
f 98/129/51 99/130/51 97/131/51
f 101/132/52 105/133/52 99/130/52
f 107/134/53 103/135/53 105/133/53
f 104/136/54 98/137/54 109/138/54
f 97/139/54 110/140/54 111/141/54
f 105/133/55 97/142/55 99/143/55
f 101/144/56 104/136/56 107/134/56
f 102/132/53 111/145/53 100/130/53
f 106/133/54 102/132/54 100/130/54
f 106/133/51 109/146/51 108/134/51
f 106/133/56 111/147/56 110/148/56
f 102/144/55 109/146/55 112/149/55
f 98/129/51 101/132/51 99/130/51
f 101/132/52 107/134/52 105/133/52
f 107/134/53 104/136/53 103/135/53
f 110/140/54 103/135/54 104/136/54
f 98/137/54 97/139/54 111/141/54
f 98/137/54 111/141/54 112/150/54
f 109/138/54 110/140/54 104/136/54
f 98/137/54 112/150/54 109/138/54
f 97/139/54 103/135/54 110/140/54
f 105/133/55 103/135/55 97/142/55
f 101/144/56 98/151/56 104/136/56
f 102/132/53 112/152/53 111/145/53
f 106/133/54 108/134/54 102/132/54
f 106/133/51 110/148/51 109/146/51
f 106/133/56 100/143/56 111/147/56
f 102/144/55 108/134/55 109/146/55
g Cube.022_Mesh
v -35.812366 11.800000 -23.935001
v -35.812366 12.200000 -23.935001
v -35.832363 11.800000 -23.935001
v -35.832363 12.200000 -23.935001
v -35.812366 11.800000 -23.945000
v -35.812366 12.200000 -23.945000
v -35.832363 11.800000 -23.945000
v -35.832363 12.200000 -23.945000
v -35.862392 11.713404 -23.934998
v -35.812389 11.800007 -23.934998
v -35.879711 11.723404 -23.934998
v -35.829712 11.810007 -23.934998
v -35.862392 11.713404 -23.944998
v -35.812389 11.800007 -23.944998
v -35.879711 11.723404 -23.944998
v -35.829712 11.810007 -23.944998
vn -0.0000 -0.0000 1.0000
vn -1.0000 -0.0000 -0.0000
vn -0.0000 -0.0000 -1.0000
vn 1.0000 -0.0000 -0.0000
vn -0.0000 -1.0000 -0.0000
vn -0.0000 1.0000 -0.0000
vn -0.8660 0.5000 -0.0000
vn 0.8660 -0.5000 -0.0000
vn -0.5000 -0.8660 -0.0000
vn 0.5000 0.8660 -0.0000
vt 0.625000 0.000000
vt 0.375000 0.250000
vt 0.375000 0.000000
vt 0.625000 0.250000
vt 0.375000 0.500000
vt 0.625000 0.500000
vt 0.375000 0.750000
vt 0.625000 0.750000
vt 0.375000 1.000000
vt 0.125000 0.750000
vt 0.125000 0.500000
vt 0.875000 0.500000
vt 0.625000 1.000000
vt 0.875000 0.750000
s 0
f 114/153/57 115/154/57 113/155/57
f 116/156/58 119/157/58 115/154/58
f 120/158/59 117/159/59 119/157/59
f 118/160/60 113/161/60 117/159/60
f 119/157/61 113/162/61 115/163/61
f 116/164/62 118/160/62 120/158/62
f 121/155/57 124/156/57 123/154/57
f 124/156/63 127/157/63 123/154/63
f 128/158/59 125/159/59 127/157/59
f 126/160/64 121/161/64 125/159/64
f 127/157/65 121/162/65 123/163/65
f 124/164/66 126/160/66 128/158/66
f 114/153/57 116/156/57 115/154/57
f 116/156/58 120/158/58 119/157/58
f 120/158/59 118/160/59 117/159/59
f 118/160/60 114/165/60 113/161/60
f 119/157/61 117/159/61 113/162/61
f 116/164/62 114/166/62 118/160/62
f 121/155/57 122/153/57 124/156/57
f 124/156/63 128/158/63 127/157/63
f 128/158/59 126/160/59 125/159/59
f 126/160/64 122/165/64 121/161/64
f 127/157/65 125/159/65 121/162/65
f 124/164/66 122/166/66 126/160/66
g Cube.132_Mesh
v -35.812366 11.800000 -22.435001
v -35.812366 12.200000 -22.435001
v -35.832363 11.800000 -22.435001
v -35.832363 12.200000 -22.435001
v -35.812366 11.800000 -22.445000
v -35.812366 12.200000 -22.445000
v -35.832363 11.800000 -22.445000
v -35.832363 12.200000 -22.445000
v -35.862392 11.713404 -22.434998
v -35.812389 11.800007 -22.434998
v -35.879711 11.723404 -22.434998
v -35.829712 11.810007 -22.434998
v -35.862392 11.713404 -22.444998
v -35.812389 11.800007 -22.444998
v -35.879711 11.723404 -22.444998
v -35.829712 11.810007 -22.444998
vn -0.0000 -0.0000 1.0000
vn -1.0000 -0.0000 -0.0000
vn -0.0000 -0.0000 -1.0000
vn 1.0000 -0.0000 -0.0000
vn -0.0000 -1.0000 -0.0000
vn -0.0000 1.0000 -0.0000
vn -0.8660 0.5000 -0.0000
vn 0.8660 -0.5000 -0.0000
vn -0.5000 -0.8660 -0.0000
vn 0.5000 0.8660 -0.0000
vt 0.625000 0.000000
vt 0.375000 0.250000
vt 0.375000 0.000000
vt 0.625000 0.250000
vt 0.375000 0.500000
vt 0.625000 0.500000
vt 0.375000 0.750000
vt 0.625000 0.750000
vt 0.375000 1.000000
vt 0.125000 0.750000
vt 0.125000 0.500000
vt 0.875000 0.500000
vt 0.625000 1.000000
vt 0.875000 0.750000
s 0
f 130/167/67 131/168/67 129/169/67
f 132/170/68 135/171/68 131/168/68
f 136/172/69 133/173/69 135/171/69
f 134/174/70 129/175/70 133/173/70
f 135/171/71 129/176/71 131/177/71
f 132/178/72 134/174/72 136/172/72
f 137/169/67 140/170/67 139/168/67
f 140/170/73 143/171/73 139/168/73
f 144/172/69 141/173/69 143/171/69
f 142/174/74 137/175/74 141/173/74
f 143/171/75 137/176/75 139/177/75
f 140/178/76 142/174/76 144/172/76
f 130/167/67 132/170/67 131/168/67
f 132/170/68 136/172/68 135/171/68
f 136/172/69 134/174/69 133/173/69
f 134/174/70 130/179/70 129/175/70
f 135/171/71 133/173/71 129/176/71
f 132/178/72 130/180/72 134/174/72
f 137/169/67 138/167/67 140/170/67
f 140/170/73 144/172/73 143/171/73
f 144/172/69 142/174/69 141/173/69
f 142/174/74 138/179/74 137/175/74
f 143/171/75 141/173/75 137/176/75
f 140/178/76 138/180/76 142/174/76
