# Blender 4.5.3 LTS
# www.blender.org
mtllib house_CRWindows_windows.mtl
g Windows.001_Mesh
v -24.420000 5.544400 -33.846352
v -24.420000 5.551346 -33.885742
v -24.420000 5.268654 -33.894974
v -24.420000 5.275600 -33.934364
v -21.580000 5.544400 -33.846352
v -21.580000 5.551346 -33.885742
v -21.580000 5.268654 -33.894974
v -21.580000 5.275600 -33.934364
v -24.420000 5.843311 -33.848476
v -24.420000 5.850257 -33.887871
v -24.420000 5.567565 -33.897099
v -24.420000 5.574511 -33.936493
v -21.580000 5.843311 -33.848476
v -21.580000 5.850257 -33.887871
v -21.580000 5.567565 -33.897099
v -21.580000 5.574511 -33.936493
v -24.420000 6.142221 -33.850605
v -24.420000 6.149167 -33.889996
v -24.420000 5.866475 -33.899227
v -24.420000 5.873421 -33.938618
v -21.580000 6.142221 -33.850605
v -21.580000 6.149167 -33.889996
v -21.580000 5.866475 -33.899227
v -21.580000 5.873421 -33.938618
v -24.420000 6.441132 -33.852734
v -24.420000 6.448078 -33.892124
v -24.420000 6.165386 -33.901352
v -24.420000 6.172332 -33.940746
v -21.580000 6.441132 -33.852734
v -21.580000 6.448078 -33.892124
v -21.580000 6.165386 -33.901352
v -21.580000 6.172332 -33.940746
v -24.420000 6.740042 -33.854858
v -24.420000 6.746988 -33.894253
v -24.420000 6.464296 -33.903481
v -24.420000 6.471242 -33.942875
v -21.580000 6.740042 -33.854858
v -21.580000 6.746988 -33.894253
v -21.580000 6.464296 -33.903481
v -21.580000 6.471242 -33.942875
v -22.960003 5.275600 -33.934364
v -23.040003 5.275600 -33.934364
v -23.040003 5.268654 -33.894974
v -22.960003 5.268654 -33.894974
v -23.040003 5.551346 -33.885742
v -22.960003 5.551346 -33.885742
v -23.040003 5.544400 -33.846352
v -22.960003 5.544400 -33.846352
v -22.960003 5.574511 -33.936493
v -23.040003 5.574511 -33.936493
v -23.040003 5.567565 -33.897099
v -22.960003 5.567565 -33.897099
v -23.040003 5.850257 -33.887871
v -22.960003 5.850257 -33.887871
v -22.960003 5.843311 -33.848476
v -23.040003 5.843311 -33.848476
v -22.960003 5.873421 -33.938618
v -23.040003 5.873421 -33.938618
v -22.960003 5.866475 -33.899227
v -23.040003 5.866475 -33.899227
v -22.960003 6.149167 -33.889996
v -23.040003 6.149167 -33.889996
v -22.960003 6.142221 -33.850605
v -23.040003 6.142221 -33.850605
v -22.960003 6.172332 -33.940746
v -23.040003 6.172332 -33.940746
v -23.040003 6.165386 -33.901352
v -22.960003 6.165386 -33.901352
v -23.040003 6.448078 -33.892124
v -22.960003 6.448078 -33.892124
v -22.960003 6.441132 -33.852734
v -23.040003 6.441132 -33.852734
v -22.960003 6.471242 -33.942875
v -23.040003 6.471242 -33.942875
v -23.040003 6.464296 -33.903481
v -22.960003 6.464296 -33.903481
v -23.040003 6.746988 -33.894253
v -22.960003 6.746988 -33.894253
v -22.960003 6.740042 -33.854858
v -23.040003 6.740042 -33.854858
vn -1.0000 -0.0000 -0.0000
vn -0.0000 -0.9848 -0.1736
vn 1.0000 -0.0000 -0.0000
vn -0.0000 0.9848 0.1736
vn -0.0000 -0.1736 0.9848
vn -0.0000 0.1736 -0.9848
vt 0.625000 0.000000
vt 0.375000 0.250000
vt 0.375000 0.000000
vt 0.375000 0.500000
vt 0.625000 0.378521
vt 0.625000 0.500000
vt 0.625000 0.250000
vt 0.375000 0.371479
vt 0.375000 0.750000
vt 0.375000 1.000000
vt 0.625000 0.878521
vt 0.625000 1.000000
vt 0.625000 0.750000
vt 0.375000 0.871479
vt 0.253521 0.750000
vt 0.253521 0.500000
vt 0.125000 0.750000
vt 0.246479 0.500000
vt 0.246479 0.750000
vt 0.875000 0.750000
vt 0.753521 0.500000
vt 0.875000 0.500000
vt 0.746479 0.500000
vt 0.746479 0.750000
vt 0.375000 0.878521
vt 0.125000 0.500000
vt 0.625000 0.871479
vt 0.578540 0.234409
vt 0.623340 0.051047
vt 0.577383 0.152342
vt 0.523704 0.042184
vt 0.478904 0.225546
vt 0.524861 0.124251
vt 0.528722 0.229978
vt 0.573522 0.046615
vt 0.527564 0.147910
vt 0.424067 0.033321
vt 0.379267 0.216684
vt 0.425224 0.115389
vt 0.473885 0.037753
vt 0.429085 0.221115
vt 0.475043 0.119820
vt 0.623340 0.698953
vt 0.578540 0.515591
vt 0.577383 0.597659
vt 0.427928 0.610952
vt 0.475043 0.630180
vt 0.429085 0.528885
vt 0.528722 0.520023
vt 0.573522 0.703385
vt 0.574680 0.621317
vt 0.478904 0.524454
vt 0.523704 0.707816
vt 0.524861 0.625749
vt 0.379267 0.533317
vt 0.424067 0.716679
vt 0.425225 0.634611
vt 0.375000 0.378521
vt 0.625000 0.371479
vt 0.753521 0.750000
vt 0.624498 0.133114
vt 0.477746 0.143479
vt 0.574680 0.128683
vt 0.378109 0.134616
vt 0.427928 0.139048
vt 0.624498 0.616886
vt 0.473885 0.712247
vt 0.527564 0.602090
vt 0.477746 0.606521
vt 0.378109 0.615384
s 0
f 2/1/1 3/2/1 1/3/1
f 7/4/2 41/5/2 8/6/2
f 4/7/2 43/8/2 3/2/2
f 8/6/3 5/9/3 7/4/3
f 1/10/4 45/11/4 2/12/4
f 6/13/4 48/14/4 5/9/4
f 7/4/5 48/15/5 44/16/5
f 1/17/5 43/18/5 47/19/5
f 2/20/6 42/21/6 4/22/6
f 6/13/6 41/23/6 46/24/6
f 10/1/1 11/2/1 9/3/1
f 15/4/2 49/5/2 16/6/2
f 12/7/2 51/8/2 11/2/2
f 16/6/3 13/9/3 15/4/3
f 10/12/4 56/25/4 53/11/4
f 14/13/4 55/14/4 13/9/4
f 15/4/5 55/15/5 52/16/5
f 9/17/5 51/18/5 56/19/5
f 10/20/6 50/21/6 12/22/6
f 14/13/6 49/23/6 54/24/6
f 18/1/1 19/2/1 17/3/1
f 23/4/2 57/5/2 24/6/2
f 20/7/2 60/8/2 19/2/2
f 24/6/3 21/9/3 23/4/3
f 17/10/4 62/11/4 18/12/4
f 22/13/4 63/14/4 21/9/4
f 23/4/5 63/15/5 59/16/5
f 19/26/5 64/19/5 17/17/5
f 18/20/6 58/21/6 20/22/6
f 22/13/6 57/23/6 61/24/6
f 26/1/1 27/2/1 25/3/1
f 31/4/2 65/5/2 32/6/2
f 28/7/2 67/8/2 27/2/2
f 32/6/3 29/9/3 31/4/3
f 25/10/4 69/11/4 26/12/4
f 29/9/4 70/27/4 71/14/4
f 31/4/5 71/15/5 68/16/5
f 27/26/5 72/19/5 25/17/5
f 26/20/6 66/21/6 28/22/6
f 30/13/6 65/23/6 70/24/6
f 34/1/1 35/2/1 33/3/1
f 39/4/2 73/5/2 40/6/2
f 36/7/2 75/8/2 35/2/2
f 40/6/3 37/9/3 39/4/3
f 33/10/4 77/11/4 34/12/4
f 38/13/4 79/14/4 37/9/4
f 39/4/5 79/15/5 76/16/5
f 35/26/5 80/19/5 33/17/5
f 34/20/6 74/21/6 36/22/6
f 38/13/6 73/23/6 78/24/6
f 74/28/3 80/29/3 75/30/3
f 64/31/3 58/32/3 62/33/3
f 66/34/3 72/35/3 67/36/3
f 47/37/3 42/38/3 45/39/3
f 56/40/3 50/41/3 53/42/3
f 79/43/1 73/44/1 76/45/1
f 52/46/1 54/47/1 49/48/1
f 65/49/1 71/50/1 70/51/1
f 57/52/1 63/53/1 61/54/1
f 41/55/1 48/56/1 46/57/1
f 2/1/1 4/7/1 3/2/1
f 7/4/2 44/58/2 41/5/2
f 4/7/2 42/59/2 43/8/2
f 8/6/3 6/13/3 5/9/3
f 1/10/4 47/25/4 45/11/4
f 6/13/4 46/27/4 48/14/4
f 7/4/5 5/9/5 48/15/5
f 1/17/5 3/26/5 43/18/5
f 2/20/6 45/60/6 42/21/6
f 6/13/6 8/6/6 41/23/6
f 10/1/1 12/7/1 11/2/1
f 15/4/2 52/58/2 49/5/2
f 12/7/2 50/59/2 51/8/2
f 16/6/3 14/13/3 13/9/3
f 10/12/4 9/10/4 56/25/4
f 14/13/4 54/27/4 55/14/4
f 15/4/5 13/9/5 55/15/5
f 9/17/5 11/26/5 51/18/5
f 10/20/6 53/60/6 50/21/6
f 14/13/6 16/6/6 49/23/6
f 18/1/1 20/7/1 19/2/1
f 23/4/2 59/58/2 57/5/2
f 20/7/2 58/59/2 60/8/2
f 24/6/3 22/13/3 21/9/3
f 17/10/4 64/25/4 62/11/4
f 22/13/4 61/27/4 63/14/4
f 23/4/5 21/9/5 63/15/5
f 19/26/5 60/18/5 64/19/5
f 18/20/6 62/60/6 58/21/6
f 22/13/6 24/6/6 57/23/6
f 26/1/1 28/7/1 27/2/1
f 31/4/2 68/58/2 65/5/2
f 28/7/2 66/59/2 67/8/2
f 32/6/3 30/13/3 29/9/3
f 25/10/4 72/25/4 69/11/4
f 29/9/4 30/13/4 70/27/4
f 31/4/5 29/9/5 71/15/5
f 27/26/5 67/18/5 72/19/5
f 26/20/6 69/60/6 66/21/6
f 30/13/6 32/6/6 65/23/6
f 34/1/1 36/7/1 35/2/1
f 39/4/2 76/58/2 73/5/2
f 36/7/2 74/59/2 75/8/2
f 40/6/3 38/13/3 37/9/3
f 33/10/4 80/25/4 77/11/4
f 38/13/4 78/27/4 79/14/4
f 39/4/5 37/9/5 79/15/5
f 35/26/5 75/18/5 80/19/5
f 34/20/6 77/60/6 74/21/6
f 38/13/6 40/6/6 73/23/6
f 74/28/3 77/61/3 80/29/3
f 64/31/3 60/62/3 58/32/3
f 66/34/3 69/63/3 72/35/3
f 47/37/3 43/64/3 42/38/3
f 56/40/3 51/65/3 50/41/3
f 79/43/1 78/66/1 73/44/1
f 52/46/1 55/67/1 54/47/1
f 65/49/1 68/68/1 71/50/1
f 57/52/1 59/69/1 63/53/1
f 41/55/1 44/70/1 48/56/1
g Windows_Mesh
v -35.855995 11.534400 -21.038332
v -35.895386 11.541346 -21.038332
v -35.904617 11.258654 -21.038332
v -35.944008 11.265599 -21.038332
v -35.855995 11.534400 -23.878332
v -35.895386 11.541346 -23.878332
v -35.904617 11.258654 -23.878332
v -35.944008 11.265599 -23.878332
v -35.858120 11.833310 -21.038332
v -35.897514 11.840256 -21.038332
v -35.906742 11.557564 -21.038332
v -35.946136 11.564510 -21.038332
v -35.858120 11.833310 -23.878332
v -35.897514 11.840256 -23.878332
v -35.906742 11.557564 -23.878332
v -35.946136 11.564510 -23.878332
v -35.860249 12.132220 -21.038332
v -35.899639 12.139167 -21.038332
v -35.908871 11.856475 -21.038332
v -35.948261 11.863420 -21.038332
v -35.860249 12.132220 -23.878332
v -35.899643 12.139167 -23.878332
v -35.908871 11.856475 -23.878332
v -35.948261 11.863420 -23.878332
v -35.862377 12.431131 -21.038332
v -35.901768 12.438077 -21.038332
v -35.910995 12.155385 -21.038332
v -35.950390 12.162331 -21.038332
v -35.862377 12.431131 -23.878332
v -35.901768 12.438077 -23.878332
v -35.910995 12.155385 -23.878332
v -35.950390 12.162331 -23.878332
v -35.864502 12.730042 -21.038332
v -35.903896 12.736987 -21.038332
v -35.913124 12.454295 -21.038332
v -35.952515 12.461242 -21.038332
v -35.864502 12.730042 -23.878332
v -35.903896 12.736987 -23.878332
v -35.913124 12.454295 -23.878332
v -35.952518 12.461242 -23.878332
v -35.944008 11.265599 -22.498329
v -35.944008 11.265599 -22.418329
v -35.904617 11.258654 -22.418329
v -35.904617 11.258654 -22.498329
v -35.895386 11.541346 -22.418329
v -35.895386 11.541346 -22.498329
v -35.855995 11.534400 -22.418329
v -35.855995 11.534400 -22.498329
v -35.946136 11.564510 -22.498329
v -35.946136 11.564510 -22.418329
v -35.906742 11.557564 -22.418329
v -35.906742 11.557564 -22.498329
v -35.897514 11.840256 -22.418329
v -35.897514 11.840256 -22.498329
v -35.858120 11.833310 -22.498329
v -35.858120 11.833310 -22.418329
v -35.948261 11.863420 -22.498329
v -35.948261 11.863420 -22.418329
v -35.908871 11.856475 -22.498329
v -35.908871 11.856475 -22.418329
v -35.899639 12.139167 -22.498329
v -35.899639 12.139167 -22.418329
v -35.860249 12.132220 -22.498329
v -35.860249 12.132220 -22.418329
v -35.950390 12.162331 -22.498329
v -35.950390 12.162331 -22.418329
v -35.910995 12.155385 -22.418329
v -35.910995 12.155385 -22.498329
v -35.901768 12.438077 -22.418329
v -35.901768 12.438077 -22.498329
v -35.862377 12.431131 -22.498329
v -35.862377 12.431131 -22.418329
v -35.952518 12.461242 -22.498329
v -35.952518 12.461242 -22.418329
v -35.913124 12.454295 -22.418329
v -35.913124 12.454295 -22.498329
v -35.903896 12.736987 -22.418329
v -35.903896 12.736987 -22.498329
v -35.864502 12.730042 -22.498329
v -35.864502 12.730042 -22.418329
vn -0.0000 -0.0000 1.0000
vn -0.1736 -0.9848 -0.0000
vn -0.0000 -0.0000 -1.0000
vn 0.1736 0.9848 -0.0000
vn 0.9848 -0.1736 -0.0000
vn -0.9848 0.1736 -0.0000
vt 0.625000 0.000000
vt 0.375000 0.250000
vt 0.375000 0.000000
vt 0.375000 0.500000
vt 0.625000 0.378521
vt 0.625000 0.500000
vt 0.625000 0.250000
vt 0.375000 0.371479
vt 0.375000 0.750000
vt 0.375000 1.000000
vt 0.625000 0.878521
vt 0.625000 1.000000
vt 0.625000 0.750000
vt 0.375000 0.871479
vt 0.253521 0.750000
vt 0.253521 0.500000
vt 0.125000 0.750000
vt 0.246479 0.500000
vt 0.246479 0.750000
vt 0.875000 0.750000
vt 0.753521 0.500000
vt 0.875000 0.500000
vt 0.746479 0.500000
vt 0.746479 0.750000
vt 0.375000 0.878521
vt 0.125000 0.500000
vt 0.625000 0.871479
vt 0.578540 0.234409
vt 0.623340 0.051047
vt 0.577383 0.152342
vt 0.523704 0.042184
vt 0.478904 0.225546
vt 0.524861 0.124251
vt 0.528722 0.229978
vt 0.573522 0.046615
vt 0.527564 0.147910
vt 0.424067 0.033321
vt 0.379267 0.216684
vt 0.425224 0.115389
vt 0.473885 0.037753
vt 0.429085 0.221115
vt 0.475043 0.119820
vt 0.623340 0.698953
vt 0.578540 0.515591
vt 0.577383 0.597659
vt 0.427928 0.610952
vt 0.475043 0.630180
vt 0.429085 0.528885
vt 0.528722 0.520023
vt 0.573522 0.703385
vt 0.574680 0.621317
vt 0.478904 0.524454
vt 0.523704 0.707816
vt 0.524861 0.625749
vt 0.379267 0.533317
vt 0.424067 0.716679
vt 0.425225 0.634611
vt 0.375000 0.378521
vt 0.625000 0.371479
vt 0.753521 0.750000
vt 0.624498 0.133114
vt 0.477746 0.143479
vt 0.574680 0.128683
vt 0.378109 0.134616
vt 0.427928 0.139048
vt 0.624498 0.616886
vt 0.473885 0.712247
vt 0.527564 0.602090
vt 0.477746 0.606521
vt 0.378109 0.615384
s 0
f 82/71/7 83/72/7 81/73/7
f 87/74/8 121/75/8 88/76/8
f 84/77/8 123/78/8 83/72/8
f 88/76/9 85/79/9 87/74/9
f 81/80/10 125/81/10 82/82/10
f 86/83/10 128/84/10 85/79/10
f 87/74/11 128/85/11 124/86/11
f 81/87/11 123/88/11 127/89/11
f 82/90/12 122/91/12 84/92/12
f 86/83/12 121/93/12 126/94/12
f 90/71/7 91/72/7 89/73/7
f 95/74/8 129/75/8 96/76/8
f 92/77/8 131/78/8 91/72/8
f 96/76/9 93/79/9 95/74/9
f 90/82/10 136/95/10 133/81/10
f 94/83/10 135/84/10 93/79/10
f 95/74/11 135/85/11 132/86/11
f 89/87/11 131/88/11 136/89/11
f 90/90/12 130/91/12 92/92/12
f 94/83/12 129/93/12 134/94/12
f 98/71/7 99/72/7 97/73/7
f 103/74/8 137/75/8 104/76/8
f 100/77/8 140/78/8 99/72/8
f 104/76/9 101/79/9 103/74/9
f 97/80/10 142/81/10 98/82/10
f 102/83/10 143/84/10 101/79/10
f 103/74/11 143/85/11 139/86/11
f 99/96/11 144/89/11 97/87/11
f 98/90/12 138/91/12 100/92/12
f 102/83/12 137/93/12 141/94/12
f 106/71/7 107/72/7 105/73/7
f 111/74/8 145/75/8 112/76/8
f 108/77/8 147/78/8 107/72/8
f 112/76/9 109/79/9 111/74/9
f 105/80/10 149/81/10 106/82/10
f 109/79/10 150/97/10 151/84/10
f 111/74/11 151/85/11 148/86/11
f 107/96/11 152/89/11 105/87/11
f 106/90/12 146/91/12 108/92/12
f 110/83/12 145/93/12 150/94/12
f 114/71/7 115/72/7 113/73/7
f 119/74/8 153/75/8 120/76/8
f 116/77/8 155/78/8 115/72/8
f 120/76/9 117/79/9 119/74/9
f 113/80/10 157/81/10 114/82/10
f 118/83/10 159/84/10 117/79/10
f 119/74/11 159/85/11 156/86/11
f 115/96/11 160/89/11 113/87/11
f 114/90/12 154/91/12 116/92/12
f 118/83/12 153/93/12 158/94/12
f 154/98/9 160/99/9 155/100/9
f 144/101/9 138/102/9 142/103/9
f 146/104/9 152/105/9 147/106/9
f 127/107/9 122/108/9 125/109/9
f 136/110/9 130/111/9 133/112/9
f 159/113/7 153/114/7 156/115/7
f 132/116/7 134/117/7 129/118/7
f 145/119/7 151/120/7 150/121/7
f 137/122/7 143/123/7 141/124/7
f 121/125/7 128/126/7 126/127/7
f 82/71/7 84/77/7 83/72/7
f 87/74/8 124/128/8 121/75/8
f 84/77/8 122/129/8 123/78/8
f 88/76/9 86/83/9 85/79/9
f 81/80/10 127/95/10 125/81/10
f 86/83/10 126/97/10 128/84/10
f 87/74/11 85/79/11 128/85/11
f 81/87/11 83/96/11 123/88/11
f 82/90/12 125/130/12 122/91/12
f 86/83/12 88/76/12 121/93/12
f 90/71/7 92/77/7 91/72/7
f 95/74/8 132/128/8 129/75/8
f 92/77/8 130/129/8 131/78/8
f 96/76/9 94/83/9 93/79/9
f 90/82/10 89/80/10 136/95/10
f 94/83/10 134/97/10 135/84/10
f 95/74/11 93/79/11 135/85/11
f 89/87/11 91/96/11 131/88/11
f 90/90/12 133/130/12 130/91/12
f 94/83/12 96/76/12 129/93/12
f 98/71/7 100/77/7 99/72/7
f 103/74/8 139/128/8 137/75/8
f 100/77/8 138/129/8 140/78/8
f 104/76/9 102/83/9 101/79/9
f 97/80/10 144/95/10 142/81/10
f 102/83/10 141/97/10 143/84/10
f 103/74/11 101/79/11 143/85/11
f 99/96/11 140/88/11 144/89/11
f 98/90/12 142/130/12 138/91/12
f 102/83/12 104/76/12 137/93/12
f 106/71/7 108/77/7 107/72/7
f 111/74/8 148/128/8 145/75/8
f 108/77/8 146/129/8 147/78/8
f 112/76/9 110/83/9 109/79/9
f 105/80/10 152/95/10 149/81/10
f 109/79/10 110/83/10 150/97/10
f 111/74/11 109/79/11 151/85/11
f 107/96/11 147/88/11 152/89/11
f 106/90/12 149/130/12 146/91/12
f 110/83/12 112/76/12 145/93/12
f 114/71/7 116/77/7 115/72/7
f 119/74/8 156/128/8 153/75/8
f 116/77/8 154/129/8 155/78/8
f 120/76/9 118/83/9 117/79/9
f 113/80/10 160/95/10 157/81/10
f 118/83/10 158/97/10 159/84/10
f 119/74/11 117/79/11 159/85/11
f 115/96/11 155/88/11 160/89/11
f 114/90/12 157/130/12 154/91/12
f 118/83/12 120/76/12 153/93/12
f 154/98/9 157/131/9 160/99/9
f 144/101/9 140/132/9 138/102/9
f 146/104/9 149/133/9 152/105/9
f 127/107/9 123/134/9 122/108/9
f 136/110/9 131/135/9 130/111/9
f 159/113/7 158/136/7 153/114/7
f 132/116/7 135/137/7 134/117/7
f 145/119/7 148/138/7 151/120/7
f 137/122/7 139/139/7 143/123/7
f 121/125/7 124/140/7 128/126/7
