# Blender 4.5.3 LTS
# www.blender.org
mtllib house_1stFloorCR_wall.mtl
g Cube.008_Mesh
v -20.190001 8.000000 -33.799999
v -20.190001 2.000000 -33.799999
v -20.190001 8.000000 -26.200001
v -20.190001 2.000000 -26.200001
v -20.210001 8.000000 -33.799999
v -20.210001 2.000000 -33.799999
v -20.210001 8.000000 -26.200001
v -20.210001 2.000000 -26.200001
v -20.200001 5.000000 -26.200001
vn -0.0000 1.0000 -0.0000
vn -0.0000 -0.0000 1.0000
vn -1.0000 -0.0000 -0.0000
vn -0.0000 -1.0000 -0.0000
vn 1.0000 -0.0000 -0.0000
vn -0.0000 -0.0000 -1.0000
vt 0.875000 0.500000
vt 0.625000 0.750000
vt 0.625000 0.500000
vt 0.375000 0.750000
vt 0.500000 0.875000
vt 0.625000 1.000000
vt 0.375000 1.000000
vt 0.625000 0.000000
vt 0.375000 0.250000
vt 0.375000 0.000000
vt 0.375000 0.500000
vt 0.125000 0.750000
vt 0.125000 0.500000
vt 0.625000 0.250000
vt 0.875000 0.750000
s 0
usemtl Material.009
f 5/1/1 3/2/1 1/3/1
f 4/4/2 3/2/2 9/5/2
f 7/6/2 8/7/2 9/5/2
f 7/8/3 6/9/3 8/10/3
f 2/11/4 8/12/4 6/13/4
f 1/3/5 4/4/5 2/11/5
f 5/14/6 2/11/6 6/9/6
f 5/1/1 7/15/1 3/2/1
f 3/2/2 7/6/2 9/5/2
f 9/5/2 8/7/2 4/4/2
f 7/8/3 5/14/3 6/9/3
f 2/11/4 4/4/4 8/12/4
f 1/3/5 3/2/5 4/4/5
f 5/14/6 1/3/6 2/11/6
g Cube.100_Mesh
v -35.790001 8.000000 -33.799999
v -35.790001 2.000000 -33.799999
v -35.790001 8.000000 -26.200001
v -35.790001 2.000000 -26.200001
v -35.809998 8.000000 -33.799999
v -35.809998 2.000000 -33.799999
v -35.809998 8.000000 -26.200001
v -35.809998 2.000000 -26.200001
v -35.799999 5.000000 -26.200001
vn -0.0000 1.0000 -0.0000
vn -0.0000 -0.0000 1.0000
vn -1.0000 -0.0000 -0.0000
vn -0.0000 -1.0000 -0.0000
vn 1.0000 -0.0000 -0.0000
vn -0.0000 -0.0000 -1.0000
vt 0.875000 0.500000
vt 0.625000 0.750000
vt 0.625000 0.500000
vt 0.375000 0.750000
vt 0.500000 0.875000
vt 0.625000 1.000000
vt 0.375000 1.000000
vt 0.625000 0.000000
vt 0.375000 0.250000
vt 0.375000 0.000000
vt 0.375000 0.500000
vt 0.125000 0.750000
vt 0.125000 0.500000
vt 0.625000 0.250000
vt 0.875000 0.750000
s 0
usemtl Material.032
f 14/16/7 12/17/7 10/18/7
f 13/19/8 12/17/8 18/20/8
f 16/21/8 17/22/8 18/20/8
f 16/23/9 15/24/9 17/25/9
f 11/26/10 17/27/10 15/28/10
f 10/18/11 13/19/11 11/26/11
f 14/29/12 11/26/12 15/24/12
f 14/16/7 16/30/7 12/17/7
f 12/17/8 16/21/8 18/20/8
f 18/20/8 17/22/8 13/19/8
f 16/23/9 14/29/9 15/24/9
f 11/26/10 13/19/10 17/27/10
f 10/18/11 12/17/11 13/19/11
f 14/29/12 10/18/12 11/26/12
g Cube.068_Mesh
v -20.000000 8.000000 -26.000000
v -20.000000 2.000000 -26.000000
v -20.199999 8.000000 -26.000004
v -20.199999 2.000000 -26.000004
v -24.199999 6.700001 -26.000000
v -21.799999 6.700001 -26.000000
v -21.799999 2.000000 -26.000000
v -24.199999 2.000000 -26.000000
v -24.199999 2.000000 -26.200001
v -21.799999 2.000000 -26.200001
v -24.199999 6.700001 -26.200001
v -21.799999 6.700001 -26.200001
v -20.000000 8.000000 -26.000004
v -20.000000 2.000000 -26.000004
v -20.199999 2.000000 -26.200001
v -20.199999 8.000000 -26.200001
v -35.799999 2.000000 -26.000000
v -35.799999 8.000000 -26.000000
v -35.799999 2.000000 -26.200001
v -35.799999 8.000000 -26.200001
vn -0.0000 1.0000 -0.0000
vn -0.0000 -0.0000 1.0000
vn -0.0000 -1.0000 -0.0000
vn 1.0000 -0.0000 -0.0000
vn -0.0000 -0.0000 -1.0000
vn -1.0000 -0.0000 -0.0000
vt 0.628125 0.749996
vt 0.871875 0.500000
vt 0.871875 0.750000
vt 0.570833 0.778125
vt 0.625000 0.750000
vt 0.625000 0.996875
vt 0.371875 0.749996
vt 0.346875 0.750000
vt 0.371875 0.500000
vt 0.309375 0.750000
vt 0.128125 0.500000
vt 0.309375 0.500000
vt 0.375000 0.750000
vt 0.625000 0.749996
vt 0.570833 0.434375
vt 0.625000 0.253125
vt 0.625000 0.496875
vt 0.875000 0.650000
vt 0.625000 0.600000
vt 0.625000 0.650000
vt 0.625000 0.100000
vt 0.380208 0.150000
vt 0.625000 0.150000
vt 0.380208 0.650000
vt 0.625000 1.000000
vt 0.375000 0.750002
vt 0.375000 1.000000
vt 0.625000 0.006097
vt 0.375000 0.000000
vt 0.375000 0.006097
vt 0.375000 0.640845
vt 0.625000 0.637324
vt 0.375000 0.637324
vt 0.628125 0.500000
vt 0.375000 0.778125
vt 0.375000 0.996875
vt 0.375000 0.815625
vt 0.570833 0.815625
vt 0.375000 0.749996
vt 0.346875 0.500000
vt 0.128125 0.750000
vt 0.375000 0.496875
vt 0.375000 0.471875
vt 0.570833 0.471875
vt 0.375000 0.434375
vt 0.375000 0.253125
vt 0.875000 0.600000
vt 0.380208 0.100000
vt 0.380208 0.600000
vt 0.625000 0.000000
vt 0.625000 0.640845
s 0
usemtl Material.167
f 21/31/13 38/32/13 36/33/13
f 24/34/14 19/35/14 36/36/14
f 22/37/15 25/38/15 33/39/15
f 26/40/15 37/41/15 27/42/15
f 20/43/16 31/44/16 19/35/16
f 29/45/17 38/46/17 34/47/17
f 23/48/15 30/49/15 24/50/15
f 23/51/16 27/52/16 29/53/16
f 30/49/18 25/54/18 24/50/18
f 21/55/17 32/56/17 22/57/17
f 34/58/16 22/59/16 33/60/16
f 35/61/18 38/62/18 37/63/18
f 36/33/13 19/35/13 31/44/13
f 21/31/13 34/64/13 38/32/13
f 36/33/13 31/44/13 21/31/13
f 24/34/14 25/65/14 20/43/14
f 36/36/14 35/66/14 26/67/14
f 36/36/14 26/67/14 23/68/14
f 24/34/14 20/43/14 19/35/14
f 36/36/14 23/68/14 24/34/14
f 22/37/15 32/69/15 20/43/15
f 25/38/15 28/70/15 33/39/15
f 22/37/15 20/43/15 25/38/15
f 26/40/15 35/71/15 37/41/15
f 20/43/16 32/69/16 31/44/16
f 34/47/17 33/72/17 28/73/17
f 34/47/17 28/73/17 30/74/17
f 27/75/17 37/76/17 38/46/17
f 34/47/17 30/74/17 29/45/17
f 29/45/17 27/75/17 38/46/17
f 23/48/15 29/77/15 30/49/15
f 23/51/16 26/78/16 27/52/16
f 30/49/18 28/79/18 25/54/18
f 21/55/17 31/35/17 32/56/17
f 34/58/16 21/80/16 22/59/16
f 35/61/18 36/81/18 38/62/18
g Cube.051_Mesh
v -35.799999 2.000000 -33.779999
v -35.799999 8.000000 -33.779999
v -35.799999 2.000000 -33.810005
v -20.200001 2.000000 -33.779999
v -20.200001 8.000000 -33.779999
v -35.799999 8.000000 -33.810005
v -20.200001 2.000000 -33.810005
v -21.500000 6.750000 -33.820000
v -20.200001 8.000000 -33.810005
v -24.500000 6.750000 -33.779999
v -35.799999 8.000000 -33.800003
v -20.200001 8.000000 -33.800003
v -24.500000 5.250000 -33.779999
v -35.799999 2.000000 -33.800003
v -21.500000 5.250000 -33.779999
v -21.500000 6.750000 -33.779999
v -20.200001 2.000000 -33.800003
v -24.499998 6.750000 -33.810005
v -21.499998 5.250000 -33.810005
v -21.499998 6.750000 -33.810005
v -35.799999 8.000000 -33.800003
v -35.799999 2.000000 -33.800003
v -21.500000 6.750000 -33.820000
v -24.499998 6.750000 -33.820000
v -24.499998 6.750000 -33.820000
v -21.499998 5.250000 -33.820000
v -21.500000 5.250000 -33.820000
v -21.499998 6.750000 -33.820000
v -20.200001 8.000000 -33.800003
v -20.200001 2.000000 -33.800003
v -24.500000 5.250000 -33.810005
v -24.500000 6.750000 -33.810005
v -21.500000 5.250000 -33.810005
v -21.500000 5.250000 -33.810005
v -24.499998 6.750000 -33.810005
vn -1.0000 -0.0000 -0.0000
vn -0.0000 -0.0000 -1.0000
vn 1.0000 -0.0000 -0.0000
vn -0.0000 -0.0000 1.0000
vn -0.0000 -1.0000 -0.0000
vn -0.0000 1.0000 -0.0000
vn -0.0000 -0.0067 -1.0000
vn -0.0000 0.0015 -1.0000
vt 0.625000 0.000000
vt 0.375000 0.125030
vt 0.375000 0.000000
vt 0.572917 0.479167
vt 0.572917 0.431090
vt 0.510417 0.479167
vt 0.375000 0.750000
vt 0.625000 0.624970
vt 0.625000 0.750000
vt 0.510417 0.770833
vt 0.572917 0.818910
vt 0.625000 1.000000
vt 0.510417 0.818910
vt 0.125000 0.750000
vt 0.125000 0.624970
vt 0.375000 0.624970
vt 0.875000 0.750000
vt 0.875000 0.624970
vt 0.625000 0.098750
vt 0.375000 0.100625
vt 0.625000 0.100625
vt 0.625000 0.651250
vt 0.375000 0.648750
vt 0.375000 0.649375
vt 0.125000 0.651250
vt 0.125000 0.649375
vt 0.875000 0.649375
vt 0.375000 0.996875
vt 0.625000 0.996875
vt 0.625000 0.753125
vt 0.375000 0.753125
vt 0.625000 0.250000
vt 0.375000 0.125000
vt 0.625000 0.125000
vt 0.625000 0.500000
vt 0.510417 0.479167
vt 0.572917 0.479167
vt 0.375000 0.250000
vt 0.572917 0.431090
vt 0.375000 0.500000
vt 0.625000 0.625000
vt 0.375000 0.625000
vt 0.625000 0.102499
vt 0.625000 0.101250
vt 0.375000 0.648750
vt 0.625000 0.647501
vt 0.625000 0.648750
vt 0.375000 0.647501
vt 0.375000 0.648750
vt 0.875000 0.648750
vt 0.625000 0.125030
vt 0.572917 0.770833
vt 0.375000 1.000000
vt 0.125000 0.562470
vt 0.375000 0.562470
vt 0.625000 0.562470
vt 0.875000 0.562470
vt 0.375000 0.098750
vt 0.375000 0.651250
vt 0.625000 0.648750
vt 0.875000 0.648750
vt 0.875000 0.651250
vt 0.510417 0.431090
vt 0.875000 0.647501
s 0
f 40/82/19 60/83/19 39/84/19
f 46/85/20 63/86/20 61/85/20
f 46/85/20 66/85/20 64/87/20
f 42/88/21 67/89/21 43/90/21
f 43/90/22 53/91/22 42/88/22
f 48/92/22 40/93/22 51/94/22
f 39/95/23 52/96/23 55/97/23
f 40/98/24 50/89/24 49/99/24
f 48/100/21 69/101/21 70/102/21
f 54/103/19 65/104/19 72/105/19
f 51/106/24 71/105/24 69/107/24
f 54/103/23 70/108/23 73/108/23
f 52/109/20 59/110/20 49/110/20
f 50/111/20 68/112/20 55/112/20
f 44/113/19 52/114/19 49/115/19
f 47/116/20 57/117/20 58/118/20
f 41/119/20 44/113/20 70/120/20
f 45/121/21 50/122/21 55/123/21
f 63/124/19 73/125/19 56/125/19
f 57/126/21 66/127/21 58/128/21
f 64/129/23 72/130/23 65/129/23
f 56/131/24 66/127/24 61/127/24
f 40/82/19 59/132/19 60/83/19
f 46/85/20 62/86/20 63/86/20
f 64/87/20 65/87/20 46/85/20
f 46/85/20 61/85/20 66/85/20
f 42/88/21 68/97/21 67/89/21
f 43/90/22 54/133/22 53/91/22
f 48/92/22 54/133/22 43/90/22
f 40/93/22 39/134/22 42/88/22
f 42/88/22 53/91/22 51/94/22
f 48/92/22 43/90/22 40/93/22
f 40/93/22 42/88/22 51/94/22
f 68/97/23 42/88/23 39/95/23
f 39/95/23 60/96/23 52/96/23
f 52/96/23 41/135/23 45/136/23
f 55/97/24 68/97/24 39/95/24
f 52/96/23 45/136/23 55/97/23
f 49/99/24 59/99/24 40/98/24
f 40/98/24 43/90/24 67/89/24
f 50/89/24 47/137/24 44/138/24
f 40/98/24 67/89/24 50/89/24
f 50/89/24 44/138/24 49/99/24
f 48/100/21 51/139/21 69/101/21
f 71/105/19 53/140/19 54/103/19
f 54/103/19 46/141/19 65/104/19
f 72/105/19 71/105/19 54/103/19
f 51/106/24 53/140/24 71/105/24
f 62/142/23 46/141/23 54/103/23
f 54/103/23 48/143/23 70/108/23
f 73/108/23 62/142/23 54/103/23
f 52/109/24 60/109/24 59/110/24
f 50/111/24 67/111/24 68/112/24
f 44/113/19 41/119/19 52/114/19
f 47/116/20 45/121/20 57/117/20
f 71/117/20 72/117/20 57/117/20
f 57/117/20 45/121/20 41/119/20
f 44/113/20 47/116/20 58/118/20
f 56/120/20 73/120/20 70/120/20
f 44/113/20 58/118/20 56/120/20
f 71/117/25 57/117/25 41/119/25
f 69/144/20 71/117/20 41/119/20
f 44/113/26 56/120/26 70/120/26
f 70/120/20 69/144/20 41/119/20
f 45/121/21 47/116/21 50/122/21
f 63/124/19 62/124/19 73/125/19
f 57/126/21 64/129/21 66/127/21
f 64/129/23 57/126/23 72/130/23
f 61/127/24 63/145/24 56/131/24
f 56/131/24 58/128/24 66/127/24
